<svg xmlns="http://www.w3.org/2000/svg" width="1280" height="720" viewBox="0 0 1280 720" role="img" aria-labelledby="title desc">
  <title id="title">Binocle all-in-one connected workspace logo</title>
  <desc id="desc">Original logo showing a single inclusive workspace box connecting people, data, companies, management and live activity.</desc>
  <defs>
    <linearGradient id="boxTop" x1="270" y1="102" x2="560" y2="320" gradientUnits="userSpaceOnUse">
      <stop offset="0" stop-color="#FFF8D6"/>
      <stop offset="0.48" stop-color="#F5D84A"/>
      <stop offset="1" stop-color="#E9B92F"/>
    </linearGradient>
    <linearGradient id="boxLeft" x1="226" y1="236" x2="438" y2="612" gradientUnits="userSpaceOnUse">
      <stop offset="0" stop-color="#B9E6BE"/>
      <stop offset="1" stop-color="#82C98A"/>
    </linearGradient>
    <linearGradient id="boxRight" x1="456" y1="230" x2="645" y2="602" gradientUnits="userSpaceOnUse">
      <stop offset="0" stop-color="#A9D3F6"/>
      <stop offset="1" stop-color="#7AB3E8"/>
    </linearGradient>
    <linearGradient id="portalFill" x1="322" y1="255" x2="554" y2="493" gradientUnits="userSpaceOnUse">
      <stop offset="0" stop-color="#FFFDF8"/>
      <stop offset="0.6" stop-color="#F7F4ED"/>
      <stop offset="1" stop-color="#ECE6DA"/>
    </linearGradient>
    <linearGradient id="hubGlow" x1="380" y1="318" x2="508" y2="446" gradientUnits="userSpaceOnUse">
      <stop offset="0" stop-color="#FFED7A"/>
      <stop offset="0.52" stop-color="#F5D84A"/>
      <stop offset="1" stop-color="#F1A94E"/>
    </linearGradient>
    <linearGradient id="wordGradient" x1="706" y1="264" x2="1130" y2="384" gradientUnits="userSpaceOnUse">
      <stop offset="0" stop-color="#1C1612"/>
      <stop offset="1" stop-color="#3A322C"/>
    </linearGradient>
  </defs>

  <rect x="0" y="0" width="1280" height="720" fill="#F7F4ED"/>
  <path d="M120 603C258 653 461 641 576 594C675 554 791 560 902 602C1015 645 1144 640 1213 590" fill="none" stroke="#1C1612" stroke-width="3" stroke-linecap="round" stroke-dasharray="2 17" opacity="0.16"/>

  <g id="connected-box-icon">
    <path d="M428 86L661 211L438 339L205 214Z" fill="url(#boxTop)" stroke="#1C1612" stroke-width="8" stroke-linejoin="round"/>
    <path d="M205 214L438 339L438 634L205 504Z" fill="url(#boxLeft)" stroke="#1C1612" stroke-width="8" stroke-linejoin="round"/>
    <path d="M661 211L438 339L438 634L661 501Z" fill="url(#boxRight)" stroke="#1C1612" stroke-width="8" stroke-linejoin="round"/>
    <path d="M205 214L438 339L661 211" fill="none" stroke="#1C1612" stroke-width="8" stroke-linecap="round" stroke-linejoin="round"/>
    <path d="M438 339V634" fill="none" stroke="#1C1612" stroke-width="8" stroke-linecap="round"/>

    <path d="M320 277C349 245 407 230 452 247C500 265 555 250 586 219" fill="none" stroke="#FFFDF8" stroke-width="8" stroke-linecap="round" opacity="0.6"/>
    <path d="M259 321L383 389L383 523L259 454Z" fill="#FFFDF8" stroke="#1C1612" stroke-width="5" stroke-linejoin="round" opacity="0.88"/>
    <path d="M495 386L615 318L615 451L495 523Z" fill="#FFFDF8" stroke="#1C1612" stroke-width="5" stroke-linejoin="round" opacity="0.88"/>

    <path d="M324 310C356 278 420 270 462 294C505 319 544 308 579 282C559 350 503 405 438 405C374 405 331 369 324 310Z" fill="url(#portalFill)" stroke="#1C1612" stroke-width="7" stroke-linejoin="round"/>
    <path d="M366 330C394 306 439 303 475 322" fill="none" stroke="#7AB3E8" stroke-width="7" stroke-linecap="round"/>
    <path d="M353 363C384 395 440 403 484 384C514 371 542 348 564 319" fill="none" stroke="#82C98A" stroke-width="7" stroke-linecap="round"/>

    <circle cx="439" cy="358" r="56" fill="url(#hubGlow)" stroke="#1C1612" stroke-width="7"/>
    <path d="M415 358H463M439 334V382" fill="none" stroke="#1C1612" stroke-width="8" stroke-linecap="round"/>
    <circle cx="439" cy="358" r="15" fill="#1C1612"/>
    <circle cx="433" cy="352" r="4" fill="#FFFDF8"/>

    <g id="workspace-grid" stroke="#1C1612" stroke-width="4" stroke-linecap="round" opacity="0.74">
      <path d="M364 159L489 226"/>
      <path d="M303 192L428 259"/>
      <path d="M420 125L539 192"/>
      <path d="M315 275L545 145"/>
      <path d="M384 312L612 181"/>
    </g>

    <g id="data-stack" fill="#7AB3E8" stroke="#1C1612" stroke-width="4">
      <ellipse cx="320" cy="387" rx="34" ry="13"/>
      <path d="M286 387V433C286 440 301 446 320 446C339 446 354 440 354 433V387" fill="#A9D3F6"/>
      <ellipse cx="320" cy="433" rx="34" ry="13"/>
      <path d="M286 410C286 417 301 423 320 423C339 423 354 417 354 410" fill="none"/>
    </g>

    <g id="company-node" fill="#FFFDF8" stroke="#1C1612" stroke-width="4" stroke-linejoin="round">
      <path d="M535 383L584 355L584 439L535 468Z" fill="#F5D84A"/>
      <path d="M548 390L548 452M565 380L565 442" fill="none" stroke-linecap="round"/>
      <path d="M541 416L578 395M541 442L578 421" fill="none" stroke-linecap="round"/>
    </g>

    <g id="people-node" fill="#FFFDF8" stroke="#1C1612" stroke-width="4" stroke-linecap="round" stroke-linejoin="round">
      <circle cx="273" cy="461" r="13" fill="#F5D84A"/>
      <path d="M246 509C251 486 294 486 300 509"/>
      <circle cx="355" cy="506" r="12" fill="#82C98A"/>
      <path d="M333 549C339 529 372 529 378 549"/>
    </g>

    <g id="management-node" fill="none" stroke="#1C1612" stroke-width="5" stroke-linecap="round" stroke-linejoin="round">
      <path d="M520 493L550 518L607 464"/>
      <path d="M509 546L596 494" opacity="0.35"/>
    </g>

    <g id="live-data-pulse" fill="none" stroke="#1C1612" stroke-width="5" stroke-linecap="round" stroke-linejoin="round">
      <path d="M266 551L302 529L327 558L366 514"/>
      <path d="M508 570L535 539L558 557L609 501"/>
    </g>

    <g id="outer-connections" fill="none" stroke-linecap="round" stroke-linejoin="round">
      <path d="M112 172C180 141 261 144 331 180" stroke="#7AB3E8" stroke-width="8"/>
      <path d="M111 172L155 174M111 172L141 139" stroke="#1C1612" stroke-width="5"/>
      <path d="M694 121C621 111 554 124 502 161" stroke="#82C98A" stroke-width="8"/>
      <path d="M694 121L653 104M694 121L658 146" stroke="#1C1612" stroke-width="5"/>
      <path d="M713 470C666 508 612 528 546 529" stroke="#F5D84A" stroke-width="8"/>
      <path d="M713 470L674 468M713 470L689 501" stroke="#1C1612" stroke-width="5"/>
      <path d="M147 545C201 574 278 582 355 556" stroke="#FF8080" stroke-width="8"/>
      <path d="M147 545L188 543M147 545L177 575" stroke="#1C1612" stroke-width="5"/>
    </g>

    <g id="connection-dots" stroke="#1C1612" stroke-width="5">
      <circle cx="100" cy="178" r="20" fill="#FFFDF8"/>
      <circle cx="698" cy="118" r="20" fill="#FFFDF8"/>
      <circle cx="721" cy="466" r="20" fill="#FFFDF8"/>
      <circle cx="136" cy="540" r="20" fill="#FFFDF8"/>
      <path d="M91 178H109M100 169V187" fill="none" stroke-linecap="round"/>
      <path d="M689 118H707M698 109V127" fill="none" stroke-linecap="round"/>
      <path d="M712 466H730M721 457V475" fill="none" stroke-linecap="round"/>
      <path d="M127 540H145M136 531V549" fill="none" stroke-linecap="round"/>
    </g>
  </g>

  <g id="wordmark">
    <text x="744" y="330" fill="url(#wordGradient)" font-family="Inter, Avenir Next, Helvetica, Arial, sans-serif" font-size="102" font-weight="900" letter-spacing="-4">BINOCLE</text>
    <path d="M751 361H1132" fill="none" stroke="#1C1612" stroke-width="7" stroke-linecap="round"/>
    <path d="M752 388C815 408 891 411 962 394C1036 376 1086 380 1134 402" fill="none" stroke="#F5D84A" stroke-width="12" stroke-linecap="round" opacity="0.9"/>
    <text x="748" y="452" fill="#3A322C" font-family="Inter, Avenir Next, Helvetica, Arial, sans-serif" font-size="34" font-weight="760" letter-spacing="1.5">ONE PLACE · EVERYTHING CONNECTED</text>
    <g fill="#FFFDF8" stroke="#1C1612" stroke-width="4">
      <rect x="751" y="493" width="78" height="54" rx="18" fill="#F5D84A"/>
      <circle cx="790" cy="520" r="13" fill="#1C1612"/>
      <circle cx="785" cy="516" r="3.5" fill="#FFFDF8" stroke="none"/>
      <rect x="850" y="493" width="78" height="54" rx="18" fill="#82C98A"/>
      <path d="M872 527C877 507 902 507 907 527" fill="none" stroke-linecap="round"/>
      <circle cx="889" cy="513" r="9" fill="#FFFDF8"/>
      <rect x="949" y="493" width="78" height="54" rx="18" fill="#7AB3E8"/>
      <path d="M971 526H1005M988 509V536" fill="none" stroke-linecap="round"/>
      <rect x="1048" y="493" width="78" height="54" rx="18" fill="#FFB347"/>
      <path d="M1071 525L1084 536L1104 511" fill="none" stroke-linecap="round" stroke-linejoin="round"/>
    </g>
  </g>
</svg>
