<svg xmlns="http://www.w3.org/2000/svg" viewBox="900 1420 560 430"><g fill-rule="nonzero" stroke-dashoffset="0" stroke-linecap="round" stroke-linejoin="round" stroke-miterlimit="4" clip-rule="nonzero" dominant-baseline="auto" font-weight="300" text-anchor="start" transform="translate(930 1450)"><g fill="rgba(0, 0, 0, 0)" stroke="rgba(0, 0, 0, 0)" stroke-width=".65" font-family="'Kalam', cursive" font-size="medium"><path d="M0 160 250 15M20 178 270 33M40 196 290 51M60 214 310 69M80 232 330 87M100 250l250-145M120 268l250-145M140 286l250-145M160 304l250-145M180 322l250-145M200 340l250-145M220 358l250-145"/><path d="m245 16 225 144M224 34l225 144M203 52l225 144M182 70l225 144M161 88l225 144M140 106l225 144M119 124l225 144M98 142l225 144M77 160l225 144M56 178l225 144M35 196l225 144M14 214l225 144"/></g><circle cx="235" cy="178" r="10" fill="none" stroke="rgba(0, 0, 0, 0)" stroke-width="1.2" font-family="'Kalam', cursive" font-size="medium"/><path fill="rgba(0, 0, 0, 0)" stroke="rgba(0, 0, 0, 0)" stroke-width="1.2" d="M235 154v-27m0 75v29m-24-53h-30m78 0h32m-73-17-20-20m54 54 22 22" font-family="'Kalam', cursive" font-size="medium"/><path fill="rgba(0, 0, 0, 0)" stroke="rgba(0, 0, 0, 0)" stroke-dasharray="4 3" stroke-width="1.2" d="M222 168C155 95 93 92 52 122" font-family="'Kalam', cursive" font-size="medium"/><path fill="rgba(0, 0, 0, 0)" stroke="rgba(0, 0, 0, 0)" stroke-dasharray="4 3" stroke-width="1.2" d="M251 166c49-80 93-94 135-70" font-family="'Kalam', cursive" font-size="medium"/><path fill="rgba(0, 0, 0, 0)" stroke="rgba(0, 0, 0, 0)" stroke-dasharray="4 3" stroke-width="1.2" d="M216 192c-61 59-105 68-154 46" font-family="'Kalam', cursive" font-size="medium"/><path fill="rgba(0, 0, 0, 0)" stroke="rgba(0, 0, 0, 0)" stroke-dasharray="4 3" stroke-width="1.2" d="M258 190c53 42 93 55 143 31" font-family="'Kalam', cursive" font-size="medium"/><g stroke-width="1.2"><path fill="rgba(247, 244, 237, 0.56)" stroke="rgba(0, 0, 0, 0)" d="M8 88c32-4 85-2 107 2 4 34 2 70-3 93-36 5-74 3-105 0-4-29-4-67 1-95" font-family="'Kalam', cursive" font-size="medium"/><path fill="rgba(0, 0, 0, 0)" stroke="rgba(0, 0, 0, 0)" d="M23 108h72m-72 17h60m-60 18h78m-78 17h51" font-family="'Kalam', cursive" font-size="medium"/><text x="19" y="118" fill="rgba(0, 0, 0, 0)" font-family="'Special Elite', monospace" font-size="11" transform="translate(0 82)">markdown</text></g><g stroke-width="1.2"><path fill="rgba(247, 244, 237, 0.56)" stroke="rgba(0, 0, 0, 0)" d="M328 57c37-5 106-3 126 2 3 41 0 81-6 107-40 5-88 2-122-2-4-40-3-78 2-107" font-family="'Kalam', cursive" font-size="medium"/><path fill="rgba(0, 0, 0, 0)" stroke="rgba(0, 0, 0, 0)" d="M348 78v64m42-66v67m39-66v66m-93-45h105m-103 24h102" font-family="'Kalam', cursive" font-size="medium"/><text x="21" y="134" fill="rgba(0, 0, 0, 0)" font-family="'Special Elite', monospace" font-size="11" transform="translate(318 50)">kanban</text></g><g stroke-width="1.2"><path fill="rgba(247, 244, 237, 0.56)" stroke="rgba(0, 0, 0, 0)" d="M16 221c34-6 100-3 123 2 5 36 2 76-4 98-43 6-85 4-120-1-4-33-4-73 1-99" font-family="'Kalam', cursive" font-size="medium"/><path fill="rgba(0, 0, 0, 0)" stroke="rgba(0, 0, 0, 0)" d="M33 298v-56m0 56h85m-80-11c14-13 26-6 35-21 10-18 25-13 41-29" font-family="'Kalam', cursive" font-size="medium"/><text x="22" y="126" fill="rgba(0, 0, 0, 0)" font-family="'Special Elite', monospace" font-size="11" transform="translate(7 214)">graph</text></g><g stroke-width="1.2"><path fill="rgba(247, 244, 237, 0.56)" stroke="rgba(0, 0, 0, 0)" d="M329 204c33-6 96-4 119 1 6 36 5 74-2 99-41 5-85 3-119-2-5-36-3-73 2-98" font-family="'Kalam', cursive" font-size="medium"/><path fill="rgba(0, 0, 0, 0)" stroke="rgba(0, 0, 0, 0)" d="M343 228h92m-92 23h92m-92 23h92m-68-55v71m30-71v71m28-71v71" font-family="'Kalam', cursive" font-size="medium"/><text x="21" y="128" fill="rgba(0, 0, 0, 0)" font-family="'Special Elite', monospace" font-size="11" transform="translate(319 196)">calendar</text></g></g></svg>