<svg xmlns="http://www.w3.org/2000/svg" viewBox="0 960 1440 380"><g fill="rgba(0, 0, 0, 0)" fill-rule="nonzero" stroke-dashoffset="0" stroke-linecap="round" stroke-linejoin="round" stroke-miterlimit="4" stroke-width="1.2" clip-rule="nonzero" dominant-baseline="auto" font-weight="300" opacity=".42" text-anchor="start"><path stroke="rgba(0, 0, 0, 0)" d="M0 1030h1440" font-family="'Kalam', cursive" font-size="medium"/><text x="730" y="1015" font-family="'Special Elite', monospace" font-size="11">where everything meets</text><g stroke="rgba(0, 0, 0, 0)" font-family="'Kalam', cursive" font-size="medium"><path d="M720 1030 50 1300"/><path d="m720 1030-550 270"/><path d="m720 1030-430 270"/><path d="m720 1030-310 270"/><path d="m720 1030-190 270"/><path d="m720 1030-70 270"/><path d="m720 1030 50 270"/><path d="m720 1030 170 270"/><path d="m720 1030 290 270"/><path d="m720 1030 410 270"/><path d="m720 1030 530 270"/><path d="m720 1030 650 270"/><path d="M70 1100h1300"/><path d="M120 1150h1200"/><path d="M180 1200h1080"/><path d="M250 1250h940"/></g></g></svg>