<svg xmlns="http://www.w3.org/2000/svg" viewBox="0 0 420 280"><g fill-rule="nonzero" stroke-dashoffset="0" stroke-miterlimit="4" clip-rule="nonzero" dominant-baseline="auto" font-weight="300" text-anchor="start"><path fill="rgba(240, 236, 226, 0.72)" stroke="#1c1612" stroke-linecap="round" stroke-linejoin="round" stroke-width="3" d="M42 102c31-60 115-60 158-14 38-46 133-47 177 15 39 55 4 133-75 133-50 0-84-27-92-70-12 45-49 72-99 69-76-5-103-77-69-133" font-family="'Kalam', cursive" font-size="medium"/><path fill="rgba(14, 17, 23, 0.92)" stroke="#1c1612" stroke-linecap="round" stroke-linejoin="round" stroke-width="2.2" d="M63 117c22-40 85-44 111-4 28 44 1 95-55 98-55 2-84-47-56-94" font-family="'Kalam', cursive" font-size="medium"/><path fill="rgba(245, 216, 74, 0.18)" stroke="#1c1612" stroke-linecap="round" stroke-linejoin="round" stroke-width="2.2" d="M247 116c23-40 85-42 113-2 29 42 1 94-56 97-55 2-85-47-57-95" font-family="'Kalam', cursive" font-size="medium"/><text x="84" y="154" fill="rgba(255, 255, 255, 0.82)" stroke-linecap="butt" stroke-linejoin="miter" stroke-width="1" font-family="'Special Elite', monospace" font-size="15">present</text><text x="282" y="154" fill="#1c1612" stroke-linecap="butt" stroke-linejoin="miter" stroke-width="1" font-family="'Special Elite', monospace" font-size="15">future</text><path fill="rgba(0, 0, 0, 0)" stroke="#1c1612" stroke-linecap="round" stroke-linejoin="round" stroke-width="2.2" d="M76 180h90m-82 14h67m-56 14h45" font-family="'Kalam', cursive" font-size="medium"/><path fill="rgba(0, 0, 0, 0)" stroke="#1c1612" stroke-dasharray="8 8" stroke-linecap="round" stroke-linejoin="round" stroke-width="2.2" d="M275 186c17-20 32 11 53-18m-62 35c36 11 73 8 90-13" font-family="'Kalam', cursive" font-size="medium"/><path fill="rgba(0, 0, 0, 0)" stroke="#1c1612" stroke-linecap="round" stroke-linejoin="round" stroke-width="2.2" d="M193 139c8-11 24-11 33 0" font-family="'Kalam', cursive" font-size="medium"/></g></svg>