<svg xmlns="http://www.w3.org/2000/svg" viewBox="0 0 180 140"><g fill-rule="nonzero" stroke="#1c1612" stroke-dashoffset="0" stroke-linecap="round" stroke-linejoin="round" stroke-miterlimit="4" stroke-width="1.5" clip-rule="nonzero" dominant-baseline="auto" font-family="'Kalam', cursive" font-size="medium" font-weight="300" text-anchor="start"><path fill="rgba(245, 216, 74, 0.3)" d="m91 48 28 16v32l-28 16-28-16V64Z"/><path fill="rgba(0, 0, 0, 0)" stroke-dasharray="8 8" d="M88 48C68 28 48 23 28 30"/><path fill="rgba(0, 0, 0, 0)" stroke-dasharray="8 8" d="M117 66c18-19 33-24 46-14"/><path fill="rgba(0, 0, 0, 0)" stroke-dasharray="8 8" d="M120 93c23 5 35 15 40 31"/><path fill="rgba(0, 0, 0, 0)" stroke-dasharray="8 8" d="M88 112c-14 17-36 18-54 9"/><path fill="rgba(0, 0, 0, 0)" stroke-dasharray="8 8" d="M64 93c-24 4-40-5-46-21"/><path fill="rgba(0, 0, 0, 0)" stroke-dasharray="8 8" d="M91 48c2-20 16-30 33-31"/><path fill="rgba(122, 179, 232, 0.16)" d="M16 20c13-11 33-3 32 13-1 15-24 18-33 5-5-7-5-13 1-18"/><path fill="rgba(122, 179, 232, 0.16)" d="M132 11c16-5 32 4 29 19-4 15-27 14-34 2-5-9-3-17 5-21"/><path fill="rgba(122, 179, 232, 0.16)" d="M145 43c19-10 32 8 26 23-5 14-28 11-32-5q-3-12 6-18"/><path fill="rgba(122, 179, 232, 0.16)" d="M146 110c12-9 28-2 26 13-2 14-24 15-31 2-3-6-1-11 5-15"/><path fill="rgba(122, 179, 232, 0.16)" d="M20 107c14-11 34-1 31 15-2 14-26 14-34 1-3-7-3-12 3-16"/><path fill="rgba(122, 179, 232, 0.16)" d="M8 61c12-12 31-6 32 10 0 14-22 20-32 8-5-6-5-13 0-18"/></g></svg>