<svg xmlns="http://www.w3.org/2000/svg" viewBox="0 0 180 140"><g fill-rule="nonzero" stroke="#1c1612" stroke-dashoffset="0" stroke-linecap="round" stroke-linejoin="round" stroke-miterlimit="4" stroke-width="1.5" clip-rule="nonzero" dominant-baseline="auto" font-family="'Kalam', cursive" font-size="medium" font-weight="300" text-anchor="start"><path fill="rgba(255, 253, 246, 0.72)" d="M35 18c37-4 88-3 114 3 3 33 1 79-4 101-35 7-80 4-110-1-4-36-4-76 0-103"/><path fill="rgba(0, 0, 0, 0)" stroke-dasharray="5 4" d="M52 106V62l39-28 40 29v45"/><path fill="rgba(0, 0, 0, 0)" d="M62 103V69l30-22 30 23v33m-43 0V78h22v25"/><path fill="rgba(0, 0, 0, 0)" d="m42 28 90 88m-84 0 92-87"/><path fill="rgba(245, 216, 74, 0.24)" d="m15 116 76-76 10 10-76 76Z"/><path fill="rgba(245, 216, 74, 0.24)" d="m132 24 28 28-7 7-28-28Z"/><path fill="rgba(0, 0, 0, 0)" d="M122 111c10-10 21-14 29-9 5 3 4 10-2 14-9 5-19 2-27-5"/><path fill="rgba(0, 0, 0, 0)" d="M151 105c8-7 17-6 20 2"/></g></svg>