<svg xmlns="http://www.w3.org/2000/svg" viewBox="0 0 470 380"><g fill-rule="nonzero" stroke-dashoffset="0" stroke-linecap="round" stroke-linejoin="round" stroke-miterlimit="4" stroke-width="1.2" clip-rule="nonzero" dominant-baseline="auto" font-weight="300" text-anchor="start" transform="translate(70 110)"><path fill="rgba(0, 0, 0, 0)" stroke="rgba(0, 0, 0, 0)" d="M38 84c17-42 83-46 122-12 15-27 75-31 107 0 38 39 25 108-30 122-43 11-73-13-78-52-8 39-42 62-87 50-51-13-65-71-34-108" font-family="'Kalam', cursive" font-size="medium"/><path fill="rgba(0, 0, 0, 0)" stroke="rgba(0, 0, 0, 0)" d="M52 98c19-30 69-31 87 1 21 36-2 77-46 79-43 2-62-46-41-80" font-family="'Kalam', cursive" font-size="medium"/><path fill="rgba(0, 0, 0, 0)" stroke="rgba(0, 0, 0, 0)" d="M181 98c20-30 70-31 88 2 19 36-3 77-46 78s-63-46-42-80" font-family="'Kalam', cursive" font-size="medium"/><path fill="rgba(0, 0, 0, 0)" stroke="rgba(0, 0, 0, 0)" d="M83 123h39m-19-21v42" font-family="'Kalam', cursive" font-size="medium"/><circle cx="103" cy="123" r="27" fill="rgba(0, 0, 0, 0)" stroke="rgba(0, 0, 0, 0)" font-family="'Kalam', cursive" font-size="medium"/><path fill="rgba(0, 0, 0, 0)" stroke="rgba(0, 0, 0, 0)" d="M303 72c36-2 61 21 63 57 2 33-22 58-60 58 21-27 22-83-3-115" font-family="'Kalam', cursive" font-size="medium"/><path fill="rgba(0, 0, 0, 0)" stroke="rgba(0, 0, 0, 0)" d="M36 215h234m-234-5v10m234-10v10" font-family="'Kalam', cursive" font-size="medium"/><path fill="rgba(0, 0, 0, 0)" stroke="rgba(0, 0, 0, 0)" d="M18 86v107M13 86h10M13 193h10" font-family="'Kalam', cursive" font-size="medium"/><path fill="rgba(0, 0, 0, 0)" stroke="rgba(0, 0, 0, 0)" d="M300 205c35 9 65 0 86-21" font-family="'Kalam', cursive" font-size="medium"/><path fill="rgba(0, 0, 0, 0)" stroke="rgba(0, 0, 0, 0)" d="M156 33v37" font-family="'Kalam', cursive" font-size="medium"/><path fill="rgba(0, 0, 0, 0)" stroke="rgba(0, 0, 0, 0)" d="m294 64 58-31" font-family="'Kalam', cursive" font-size="medium"/><path fill="rgba(0, 0, 0, 0)" stroke="rgba(0, 0, 0, 0)" d="M87 42 48 18" font-family="'Kalam', cursive" font-size="medium"/><path fill="rgba(28, 22, 18, 0.08)" stroke="rgba(0, 0, 0, 0)" d="m214 88 45 63h-71Z" font-family="'Kalam', cursive" font-size="medium"/><path fill="rgba(28, 22, 18, 0.08)" stroke="rgba(0, 0, 0, 0)" d="m314 92 43 2-1 38-37-2Z" font-family="'Kalam', cursive" font-size="medium"/><path fill="rgba(28, 22, 18, 0.08)" stroke="rgba(0, 0, 0, 0)" d="M63 155h67l-7 23H75Z" font-family="'Kalam', cursive" font-size="medium"/><text x="43" y="236" fill="rgba(0, 0, 0, 0)" font-family="'Special Elite', monospace" font-size="11">§01 / adjustable field shell</text><text x="198" y="62" fill="rgba(0, 0, 0, 0)" font-family="'Special Elite', monospace" font-size="11">§02</text><text x="206" y="222" fill="rgba(0, 0, 0, 0)" font-family="'Special Elite', monospace" font-size="11">field of view = ∞</text></g></svg>