<svg xmlns="http://www.w3.org/2000/svg" viewBox="0 0 190 220"><path fill="rgba(0, 0, 0, 0)" fill-rule="nonzero" stroke="#1c1612" stroke-dashoffset="0" stroke-linecap="round" stroke-linejoin="round" stroke-miterlimit="4" stroke-width="3.2" d="M82 145c-12 15-20 32-27 49" clip-rule="nonzero" dominant-baseline="auto" font-family="'Kalam', cursive" font-size="medium" font-weight="300" text-anchor="start"/><path fill="rgba(0, 0, 0, 0)" fill-rule="nonzero" stroke="#1c1612" stroke-dashoffset="0" stroke-linecap="round" stroke-linejoin="round" stroke-miterlimit="4" stroke-width="3.2" d="M108 145c13 14 23 31 31 49" clip-rule="nonzero" dominant-baseline="auto" font-family="'Kalam', cursive" font-size="medium" font-weight="300" text-anchor="start"/><ellipse cx="53" cy="198" fill="rgba(0, 0, 0, 0)" fill-rule="nonzero" stroke="#1c1612" stroke-dashoffset="0" stroke-linecap="round" stroke-linejoin="round" stroke-miterlimit="4" stroke-width="2" clip-rule="nonzero" dominant-baseline="auto" font-family="'Kalam', cursive" font-size="medium" font-weight="300" rx="11" ry="4" text-anchor="start"/><ellipse cx="141" cy="198" fill="rgba(0, 0, 0, 0)" fill-rule="nonzero" stroke="#1c1612" stroke-dashoffset="0" stroke-linecap="round" stroke-linejoin="round" stroke-miterlimit="4" stroke-width="2" clip-rule="nonzero" dominant-baseline="auto" font-family="'Kalam', cursive" font-size="medium" font-weight="300" rx="11" ry="4" text-anchor="start"/><path fill="rgba(255, 253, 246, 0.8)" fill-rule="nonzero" stroke="#1c1612" stroke-dashoffset="0" stroke-linecap="round" stroke-linejoin="round" stroke-miterlimit="4" stroke-width="2.2" d="M65.79 83.79c11.187-6.62 37.924-10.378 49.792-4.977 6.883 20.239 9.511 46.125 6.787 62.665-14.02 8.03-32.973 9.683-47.672 5.69-6.884-20.239-10.224-44.005-8.907-63.377" clip-rule="nonzero" dominant-baseline="auto" font-family="'Kalam', cursive" font-size="medium" font-weight="300" text-anchor="start"/><path fill="rgba(0, 0, 0, 0)" fill-rule="nonzero" stroke="#1c1612" stroke-dashoffset="0" stroke-linecap="round" stroke-linejoin="round" stroke-miterlimit="4" stroke-width="3.2" d="M73 88c-12 10-16 25-12 39" clip-rule="nonzero" dominant-baseline="auto" font-family="'Kalam', cursive" font-size="medium" font-weight="300" text-anchor="start"/><path fill="rgba(0, 0, 0, 0)" fill-rule="nonzero" stroke="#1c1612" stroke-dashoffset="0" stroke-linecap="round" stroke-linejoin="round" stroke-miterlimit="4" stroke-width="3.2" d="M117 88c12 10 16 25 12 39" clip-rule="nonzero" dominant-baseline="auto" font-family="'Kalam', cursive" font-size="medium" font-weight="300" text-anchor="start"/><path fill="#8fbc8f" fill-rule="nonzero" stroke="#1c1612" stroke-dashoffset="0" stroke-linecap="round" stroke-linejoin="round" stroke-miterlimit="4" stroke-width="2" d="M52 111c18-7 33-5 44 5l-1 42c-13-9-28-11-44-5Z" clip-rule="nonzero" dominant-baseline="auto" font-family="'Kalam', cursive" font-size="medium" font-weight="300" text-anchor="start"/><path fill="#8fbc8f" fill-rule="nonzero" stroke="#1c1612" stroke-dashoffset="0" stroke-linecap="round" stroke-linejoin="round" stroke-miterlimit="4" stroke-width="2" d="M96 116c14-10 31-12 47-5l1 42c-17-6-33-4-49 5Z" clip-rule="nonzero" dominant-baseline="auto" font-family="'Kalam', cursive" font-size="medium" font-weight="300" text-anchor="start"/><path fill="rgba(0, 0, 0, 0)" fill-rule="nonzero" stroke="#1c1612" stroke-dashoffset="0" stroke-linecap="round" stroke-linejoin="round" stroke-miterlimit="4" stroke-width="2" d="m96 116-1 42m-30-36 21 4m-21 7 23 4m21-11 23-4m-25 15 25-3" clip-rule="nonzero" dominant-baseline="auto" font-family="'Kalam', cursive" font-size="medium" font-weight="300" text-anchor="start"/><ellipse cx="60" cy="127" fill="rgba(0, 0, 0, 0)" fill-rule="nonzero" stroke="#1c1612" stroke-dashoffset="0" stroke-linecap="round" stroke-linejoin="round" stroke-miterlimit="4" stroke-width="2" clip-rule="nonzero" dominant-baseline="auto" font-family="'Kalam', cursive" font-size="medium" font-weight="300" rx="5" ry="4" text-anchor="start"/><ellipse cx="130" cy="127" fill="rgba(0, 0, 0, 0)" fill-rule="nonzero" stroke="#1c1612" stroke-dashoffset="0" stroke-linecap="round" stroke-linejoin="round" stroke-miterlimit="4" stroke-width="2" clip-rule="nonzero" dominant-baseline="auto" font-family="'Kalam', cursive" font-size="medium" font-weight="300" rx="5" ry="4" text-anchor="start"/><path fill="rgba(0, 0, 0, 0)" fill-rule="nonzero" stroke="#1c1612" stroke-dashoffset="0" stroke-linecap="round" stroke-linejoin="round" stroke-miterlimit="4" stroke-width="2" d="M88 72c4 6 13 6 17 0v10c-5 4-13 4-18 0Z" clip-rule="nonzero" dominant-baseline="auto" font-family="'Kalam', cursive" font-size="medium" font-weight="300" text-anchor="start"/><g fill-rule="nonzero" stroke="#1c1612" stroke-dashoffset="0" stroke-linecap="round" stroke-linejoin="round" stroke-miterlimit="4" stroke-width="2" clip-rule="nonzero" dominant-baseline="auto" font-family="'Kalam', cursive" font-size="medium" font-weight="300" text-anchor="start" transform="rotate(12 95 44)"><ellipse cx="95" cy="44" fill="rgba(0, 0, 0, 0)" rx="17.5" ry="19"/><path fill="#1c1612" d="M78 39c4-11 22-17 35-4-11-1-22 1-35 4"/><ellipse cx="88" cy="45" fill="rgba(0, 0, 0, 0)" rx="5" ry="4"/><ellipse cx="103" cy="45" fill="rgba(0, 0, 0, 0)" rx="5" ry="4"/><path fill="rgba(0, 0, 0, 0)" d="M93 45h5"/><path fill="rgba(0, 0, 0, 0)" d="M84 47c3-3 6-3 9 0m6 0c3-3 6-3 9 0"/><path fill="rgba(0, 0, 0, 0)" d="M88 57c5 4 12 4 17 0"/></g></svg>