<svg xmlns="http://www.w3.org/2000/svg" viewBox="0 0 184 118"><g fill-rule="nonzero" stroke-dashoffset="0" stroke-miterlimit="4" clip-rule="nonzero" dominant-baseline="auto" font-family="'Kalam', cursive" font-size="medium" font-weight="300" text-anchor="start"><path fill="rgba(0, 0, 0, 0)" stroke="#1c1612" stroke-linecap="round" stroke-linejoin="round" stroke-width="4" d="M49 31c-10-13-24-13-30 1"/><path fill="rgba(0, 0, 0, 0)" stroke="#1c1612" stroke-linecap="round" stroke-linejoin="round" stroke-width="4" d="M135 31c12-13 26-12 31 2"/><g stroke="#1c1612" stroke-linecap="butt" stroke-linejoin="miter" stroke-width="2.2"><path fill="#ececec" d="M15 34c11-14 36-18 54-7 11 7 18 21 17 35-1 16-13 28-31 32-21 4-41-4-48-19-6-14-3-30 8-41Z"/><path fill="#ececec" d="M115 27c19-11 43-7 54 7 11 15 14 31 8 44-7 14-27 20-48 16-18-4-30-16-31-32-1-14 6-28 17-35Z"/><ellipse cx="51" cy="61" fill="#c2c1c0" rx="39" ry="34"/><ellipse cx="145" cy="61" fill="#c2c1c0" rx="39" ry="34"/></g><path fill="#d8d0c4" stroke="#1c1612" stroke-linecap="butt" stroke-linejoin="miter" stroke-width="2.1" d="M20 39c9-11 27-14 42-7-12-3-29 0-38 11-8 11-8 24 0 34-12-8-15-26-4-38Z"/><path fill="#d8d0c4" stroke="#1c1612" stroke-linecap="butt" stroke-linejoin="miter" stroke-width="2.1" d="M122 32c14-7 32-4 42 7 11 12 8 30-4 38 8-10 8-23 0-34-9-11-26-14-38-11Z"/><ellipse cx="43" cy="57" fill="#ececec" stroke="#1c1612" stroke-linecap="butt" stroke-linejoin="miter" stroke-width="3.5" rx="39" ry="34"/><ellipse cx="141" cy="57" fill="#ececec" stroke="#1c1612" stroke-linecap="butt" stroke-linejoin="miter" stroke-width="3.5" rx="39" ry="34"/><ellipse cx="43" cy="57" fill="#e0f5e8" stroke="#1c1612" stroke-linecap="butt" stroke-linejoin="miter" stroke-width="2" rx="28" ry="24"/><ellipse cx="141" cy="57" fill="#e0f5e8" stroke="#1c1612" stroke-linecap="butt" stroke-linejoin="miter" stroke-width="2" rx="28" ry="24"/><ellipse cx="38" cy="53" fill="rgba(255, 253, 246, 0.86)" stroke="#1c1612" stroke-linecap="butt" stroke-linejoin="miter" stroke-width="1.9" rx="24" ry="20"/><ellipse cx="136" cy="53" fill="rgba(255, 253, 246, 0.86)" stroke="#1c1612" stroke-linecap="butt" stroke-linejoin="miter" stroke-width="1.9" rx="24" ry="20"/><path fill="rgba(0, 0, 0, 0)" stroke="#1c1612" stroke-linecap="round" stroke-linejoin="round" stroke-width="2.8" d="M84 53c4-5 12-5 16 0"/><path fill="rgba(0, 0, 0, 0)" stroke="#1c1612" stroke-linecap="round" stroke-linejoin="round" stroke-width="2.8" d="M86 67c4 4 9 4 13 0"/><path fill="rgba(0, 0, 0, 0)" stroke="#1c1612" stroke-linecap="round" stroke-linejoin="round" stroke-width="1.2" d="M99 62c4-8 11-8 15 0"/><path fill="rgba(0, 0, 0, 0)" stroke="#1c1612" stroke-linecap="round" stroke-linejoin="round" stroke-width="3.6" d="M80 61c4-10 11-13 17-9 4 3 7 7 11 10q3 1.5 6 0"/><path fill="rgba(0, 0, 0, 0)" stroke="#1c1612" stroke-linecap="round" stroke-linejoin="round" stroke-width="1.4" d="M16 55c4-21 20-31 40-27"/><path fill="rgba(0, 0, 0, 0)" stroke="#1c1612" stroke-linecap="round" stroke-linejoin="round" stroke-width="1.4" d="M19 62c2 14 16 24 33 23"/><path fill="rgba(0, 0, 0, 0)" stroke="#1c1612" stroke-linecap="round" stroke-linejoin="round" stroke-width="1.4" d="M118 28c21-5 40 6 46 27"/><path fill="rgba(0, 0, 0, 0)" stroke="#1c1612" stroke-linecap="round" stroke-linejoin="round" stroke-width="1.4" d="M162 63c-3 15-17 23-33 21"/><path fill="rgba(0, 0, 0, 0)" stroke="#1c1612" stroke-linecap="round" stroke-linejoin="round" stroke-width="1.4" d="M28 80c12 6 29 5 39-3"/><path fill="rgba(0, 0, 0, 0)" stroke="#1c1612" stroke-linecap="round" stroke-linejoin="round" stroke-width="1.4" d="M123 77c11 9 29 8 39 1"/><path fill="rgba(0, 0, 0, 0)" stroke="#1c1612" stroke-linecap="round" stroke-linejoin="miter" stroke-width="3.1" d="M22 20c12-6 32-6 44 1"/><path fill="rgba(0, 0, 0, 0)" stroke="#1c1612" stroke-linecap="round" stroke-linejoin="miter" stroke-width="3.1" d="M118 21c12-7 33-7 45-1"/><g stroke="rgba(0, 0, 0, 0)" stroke-linecap="butt" stroke-linejoin="miter" stroke-width="1"><circle cx="43" cy="57" r="11.4" fill="#1c1612"/><circle cx="38.8" cy="52.8" r="2.7" fill="#f7f4ed"/></g><g stroke="rgba(0, 0, 0, 0)" stroke-linecap="butt" stroke-linejoin="miter" stroke-width="1"><circle cx="141" cy="57" r="11.4" fill="#1c1612"/><circle cx="136.8" cy="52.8" r="2.7" fill="#f7f4ed"/></g><ellipse cx="92" cy="96" fill="#fffdf8" stroke="rgba(0, 0, 0, 0)" stroke-linecap="butt" stroke-linejoin="miter" stroke-width="1" rx="23" ry="15"/><path fill="rgba(0, 0, 0, 0)" stroke="#1c1612" stroke-linecap="round" stroke-linejoin="round" stroke-width="4.2" d="M76 93c7 12 25 12 32 0"/></g></svg>