<svg xmlns="http://www.w3.org/2000/svg" viewBox="0 0 120 90"><path fill="rgba(0, 0, 0, 0)" fill-rule="nonzero" stroke="#1c1612" stroke-dasharray="180" stroke-dashoffset="180" stroke-linecap="round" stroke-linejoin="round" stroke-miterlimit="4" stroke-width="1.5" d="M16 12c31-4 70-3 88 2 4 22 2 48-2 62-30 6-60 4-85 0-5-22-5-45-1-64" clip-rule="nonzero" dominant-baseline="auto" font-family="'Kalam', cursive" font-size="medium" font-weight="300" text-anchor="start"/><path fill="rgba(0, 0, 0, 0)" fill-rule="nonzero" stroke="#1c1612" stroke-dasharray="180" stroke-dashoffset="180" stroke-linecap="round" stroke-linejoin="round" stroke-miterlimit="4" stroke-width="1.5" d="M28 25h28v20H28Zm37 0h28v20H65ZM28 52h28v17H28Zm37 0h28v17H65Z" clip-rule="nonzero" dominant-baseline="auto" font-family="'Kalam', cursive" font-size="medium" font-weight="300" text-anchor="start"/><path fill="rgba(0, 0, 0, 0)" fill-rule="nonzero" stroke="#1c1612" stroke-dasharray="180" stroke-dashoffset="180" stroke-linecap="round" stroke-linejoin="round" stroke-miterlimit="4" stroke-width="1.5" d="M34 39c5-8 11 2 16-9m22 7h15M72 61h14" clip-rule="nonzero" dominant-baseline="auto" font-family="'Kalam', cursive" font-size="medium" font-weight="300" text-anchor="start"/></svg>