<svg xmlns="http://www.w3.org/2000/svg" viewBox="0 0 180 140"><path fill="rgba(255, 253, 246, 0.72)" fill-rule="nonzero" stroke="#1c1612" stroke-dashoffset="0" stroke-linecap="round" stroke-linejoin="round" stroke-miterlimit="4" stroke-width="1.5" d="M20 14c36-4 105-3 134 2 4 34 3 87-3 108-39 6-92 4-132-1-5-37-4-81 1-109" clip-rule="nonzero" dominant-baseline="auto" font-family="'Kalam', cursive" font-size="medium" font-weight="300" text-anchor="start"/><path fill="rgba(0, 0, 0, 0)" fill-rule="nonzero" stroke="#1c1612" stroke-dashoffset="0" stroke-linecap="round" stroke-linejoin="round" stroke-miterlimit="4" stroke-width="3.2" d="M35 31h75M35 43h91M35 55h57" clip-rule="nonzero" dominant-baseline="auto" font-family="'Kalam', cursive" font-size="medium" font-weight="300" text-anchor="start"/><path fill="rgba(0, 0, 0, 0)" fill-rule="nonzero" stroke="#1c1612" stroke-dashoffset="0" stroke-linecap="round" stroke-linejoin="round" stroke-miterlimit="4" stroke-width="1.5" d="M35 72h59M35 83h69M35 95h45m-45 13h53" clip-rule="nonzero" dominant-baseline="auto" font-family="'Kalam', cursive" font-size="medium" font-weight="300" text-anchor="start"/><path fill="rgba(0, 0, 0, 0)" fill-rule="nonzero" stroke="#1c1612" stroke-dashoffset="0" stroke-linecap="round" stroke-linejoin="round" stroke-miterlimit="4" stroke-width="1.5" d="M105 72h42m-42 14h42m-42 14h42m-42 14h42m-28-42v42m14-42v42" clip-rule="nonzero" dominant-baseline="auto" font-family="'Kalam', cursive" font-size="medium" font-weight="300" text-anchor="start"/><path fill="rgba(0, 0, 0, 0)" fill-rule="nonzero" stroke="#1c1612" stroke-dashoffset="0" stroke-linecap="round" stroke-linejoin="round" stroke-miterlimit="4" stroke-width="1.5" d="M32 74h10v10H32Zm1 5 4 4 7-11" clip-rule="nonzero" dominant-baseline="auto" font-family="'Kalam', cursive" font-size="medium" font-weight="300" text-anchor="start"/><path fill="rgba(0, 0, 0, 0)" fill-rule="nonzero" stroke="#1c1612" stroke-dashoffset="0" stroke-linecap="round" stroke-linejoin="round" stroke-miterlimit="4" stroke-width="1.5" d="M32 93h10v10H32Zm1 5 4 4 7-11" clip-rule="nonzero" dominant-baseline="auto" font-family="'Kalam', cursive" font-size="medium" font-weight="300" text-anchor="start"/><path fill="rgba(0, 0, 0, 0)" fill-rule="nonzero" stroke="#1c1612" stroke-dashoffset="0" stroke-linecap="round" stroke-linejoin="round" stroke-miterlimit="4" stroke-width="1.5" d="M32 112h10v10H32Z" clip-rule="nonzero" dominant-baseline="auto" font-family="'Kalam', cursive" font-size="medium" font-weight="300" text-anchor="start"/><path fill="rgba(0, 0, 0, 0)" fill-rule="nonzero" stroke="#1c1612" stroke-dashoffset="0" stroke-linecap="round" stroke-linejoin="round" stroke-miterlimit="4" stroke-width="1.5" d="M151 36c12-1 18 5 17 16" clip-rule="nonzero" dominant-baseline="auto" font-family="'Kalam', cursive" font-size="medium" font-weight="300" text-anchor="start"/><text x="132" y="31" fill="#1c1612" fill-rule="nonzero" stroke-dashoffset="0" stroke-linecap="butt" stroke-linejoin="miter" stroke-miterlimit="4" stroke-width="1" clip-rule="nonzero" dominant-baseline="auto" font-family="'Special Elite', monospace" font-size="10" font-weight="300" text-anchor="start">→ live</text><path fill="rgba(0, 0, 0, 0)" fill-rule="nonzero" stroke="#1c1612" stroke-dashoffset="0" stroke-linecap="round" stroke-linejoin="round" stroke-miterlimit="4" stroke-width=".8" d="m126 24 23 23m-16-24 20 20m-13-19 15 14" clip-rule="nonzero" dominant-baseline="auto" font-family="'Kalam', cursive" font-size="medium" font-weight="300" text-anchor="start"/></svg>