<svg xmlns="http://www.w3.org/2000/svg" viewBox="0 0 180 140"><g fill-rule="nonzero" stroke-dashoffset="0" stroke-miterlimit="4" clip-rule="nonzero" dominant-baseline="auto" font-weight="300" text-anchor="start"><path fill="none" stroke="#1c1612" stroke-linecap="round" stroke-linejoin="round" stroke-width="1.5" d="m32 31 20 55 11-19 25 24 11-11-26-23 23-10Z" font-family="'Kalam', cursive" font-size="medium"/><path fill="none" stroke="#1c1612" stroke-linecap="round" stroke-linejoin="round" stroke-width="1.5" d="m101 39 18 53 11-19 25 23 11-11-25-23 23-10Z" font-family="'Kalam', cursive" font-size="medium"/><path fill="rgba(255, 253, 246, 0.72)" stroke="#1c1612" stroke-linecap="round" stroke-linejoin="round" stroke-width="1.5" d="M77 17c26-6 53 0 62 14 7 17-15 27-34 20L87 64l5-17c-14-7-25-20-15-30" font-family="'Kalam', cursive" font-size="medium"/><path fill="rgba(0, 0, 0, 0)" stroke="#1c1612" stroke-linecap="round" stroke-linejoin="round" stroke-width="1.5" d="M91 32h35M92 43h25" font-family="'Kalam', cursive" font-size="medium"/><path fill="rgba(0, 0, 0, 0)" stroke="#1c1612" stroke-dasharray="5 4" stroke-linecap="round" stroke-linejoin="round" stroke-width="1.5" d="M38 95c32-5 72-4 109 1" font-family="'Kalam', cursive" font-size="medium"/><circle cx="50" cy="108" r="9" fill="rgba(0, 0, 0, 0)" stroke="#1c1612" stroke-linecap="round" stroke-linejoin="round" stroke-width="1.5" font-family="'Kalam', cursive" font-size="medium"/><circle cx="80" cy="111" r="9" fill="rgba(0, 0, 0, 0)" stroke="#1c1612" stroke-linecap="round" stroke-linejoin="round" stroke-width="1.5" font-family="'Kalam', cursive" font-size="medium"/><circle cx="111" cy="108" r="9" fill="rgba(0, 0, 0, 0)" stroke="#1c1612" stroke-linecap="round" stroke-linejoin="round" stroke-width="1.5" font-family="'Kalam', cursive" font-size="medium"/><circle cx="142" cy="111" r="9" fill="rgba(0, 0, 0, 0)" stroke="#1c1612" stroke-linecap="round" stroke-linejoin="round" stroke-width="1.5" font-family="'Kalam', cursive" font-size="medium"/><text x="46" y="112" fill="#1c1612" stroke-linecap="butt" stroke-linejoin="miter" stroke-width="1" font-family="'Special Elite', monospace" font-size="10">A</text><text x="76" y="115" fill="#1c1612" stroke-linecap="butt" stroke-linejoin="miter" stroke-width="1" font-family="'Special Elite', monospace" font-size="10">M</text><text x="107" y="112" fill="#1c1612" stroke-linecap="butt" stroke-linejoin="miter" stroke-width="1" font-family="'Special Elite', monospace" font-size="10">R</text><text x="138" y="115" fill="#1c1612" stroke-linecap="butt" stroke-linejoin="miter" stroke-width="1" font-family="'Special Elite', monospace" font-size="10">J</text></g></svg>