<svg xmlns="http://www.w3.org/2000/svg" viewBox="0 0 180 140"><g fill-rule="nonzero" stroke-dashoffset="0" stroke-miterlimit="4" clip-rule="nonzero" dominant-baseline="auto" font-weight="300" text-anchor="start"><path fill="rgba(255, 253, 246, 0.72)" stroke="#1c1612" stroke-linecap="round" stroke-linejoin="round" stroke-width="1.5" d="M18 19c41-5 110-4 141 1 5 31 3 81-2 101-46 6-96 6-138 0-5-35-5-76-1-102" font-family="'Kalam', cursive" font-size="medium"/><path fill="rgba(0, 0, 0, 0)" stroke="#1c1612" stroke-linecap="round" stroke-linejoin="round" stroke-width="1.5" d="M30 34h45v29H30Zm54 0h64v29H84ZM30 72h28v38H30Zm38 0h44v38H68Zm53 0h27v38h-27Z" font-family="'Kalam', cursive" font-size="medium"/><path fill="rgba(0, 0, 0, 0)" stroke="#1c1612" stroke-linecap="round" stroke-linejoin="round" stroke-width="1.5" d="M39 54c7-9 13 1 21-11" font-family="'Kalam', cursive" font-size="medium"/><path fill="rgba(0, 0, 0, 0)" stroke="#1c1612" stroke-linecap="round" stroke-linejoin="round" stroke-width="1.5" d="M92 54V44m10 10V40m10 14v-7m10 7V38" font-family="'Kalam', cursive" font-size="medium"/><path fill="rgba(0, 0, 0, 0)" stroke="#1c1612" stroke-linecap="round" stroke-linejoin="round" stroke-width="1.5" d="M39 96c3-11 12-11 13 0 1 7-8 8-13 0" font-family="'Kalam', cursive" font-size="medium"/><text x="75" y="94" fill="#1c1612" stroke-linecap="butt" stroke-linejoin="miter" stroke-width="1" font-family="'Special Elite', monospace" font-size="10">42%</text><path fill="rgba(0, 0, 0, 0)" stroke="#1c1612" stroke-linecap="round" stroke-linejoin="round" stroke-width="1.5" d="M128 87c7-6 14-1 15 9-6 2-13 0-15-9" font-family="'Kalam', cursive" font-size="medium"/><path fill="rgba(0, 0, 0, 0)" stroke="#1c1612" stroke-linecap="round" stroke-linejoin="round" stroke-width="1.5" d="m148 110 13 13m0-13-13 13" font-family="'Kalam', cursive" font-size="medium"/></g></svg>