<svg xmlns="http://www.w3.org/2000/svg" viewBox="0 0 1440 2100"><g fill="rgba(0, 0, 0, 0)" fill-rule="nonzero" stroke="rgba(0, 0, 0, 0)" stroke-dashoffset="0" stroke-linecap="round" stroke-linejoin="round" stroke-miterlimit="4" stroke-width="1.2" clip-rule="nonzero" dominant-baseline="auto" font-family="'Kalam', cursive" font-size="medium" font-weight="300" text-anchor="start"><path d="M1110 180v22m-11-11h22"/><path d="M1240 325c10-7 20-7 28 1-8 10-17 11-28-1"/><circle cx="122" cy="690" r="13"/><circle cx="122" cy="690" r="6"/><path d="m1180 790 22 22m0-22-22 22"/><path d="M240 960c-9-8-10-20 0-28m13 28c9-8 10-20 0-28"/><path d="M1290 1150v20m-10-10h20"/><path d="m80 1360 18-12 18 12-18 12Z"/><path d="m470 1560 22 22m0-22-22 22"/><path d="M1260 1830c-8-6-8-18 0-23m13 23c9-6 9-18 0-23"/><circle cx="330" cy="1870" r="9"/><circle cx="330" cy="1870" r="18"/><path d="M760 166v23m-12-12h24"/><path d="m670 430 18-12 18 12-18 12Z"/><path d="m1040 1085 24 24m0-24-24 24"/><path d="M392 1185v25m-12-12h24"/><circle cx="1190" cy="1360" r="12"/><circle cx="1190" cy="1360" r="5"/></g></svg>