<svg xmlns="http://www.w3.org/2000/svg" viewBox="0 0 190 220"><g fill-rule="nonzero" stroke-dashoffset="0" stroke-linecap="round" stroke-linejoin="round" stroke-miterlimit="4" clip-rule="nonzero" dominant-baseline="auto" font-family="'Kalam', cursive" font-size="medium" font-weight="300" text-anchor="start"><path fill="rgba(255, 253, 246, 0.92)" stroke="#1c1612" stroke-width="2" d="M119 20c31-10 55 3 50 29-3 18-30 21-45 10l-16 9 6-15c-9-10-8-26 5-33"/><path fill="rgba(0, 0, 0, 0)" stroke="#1c1612" stroke-width="2" d="M130 39h25m-24 10h18"/><path fill="rgba(0, 0, 0, 0)" stroke="#1c1612" stroke-width="3.2" d="M82 145c-5 17-9 35-13 51"/><path fill="rgba(0, 0, 0, 0)" stroke="#1c1612" stroke-width="3.2" d="M108 145c8 18 14 35 20 51"/><ellipse cx="67" cy="199" fill="rgba(0, 0, 0, 0)" stroke="#1c1612" stroke-width="2" rx="11" ry="4"/><ellipse cx="131" cy="199" fill="rgba(0, 0, 0, 0)" stroke="#1c1612" stroke-width="2" rx="11" ry="4"/><path fill="rgba(255, 253, 246, 0.8)" stroke="#1c1612" stroke-width="2.2" d="M70 80c13-5 38-5 50 2 4 22 3 46-2 63-15 6-34 5-48-1-4-21-4-45 0-64"/><path fill="rgba(0, 0, 0, 0)" stroke="#1c1612" stroke-width="3.2" d="M73 88c-18 8-24 23-26 38"/><ellipse cx="46" cy="130" fill="rgba(0, 0, 0, 0)" stroke="#1c1612" stroke-width="2" rx="5" ry="4"/><path fill="rgba(0, 0, 0, 0)" stroke="#1c1612" stroke-width="3.2" d="M117 86c16-11 22-28 18-44"/><ellipse cx="134" cy="37" fill="rgba(0, 0, 0, 0)" stroke="#1c1612" stroke-width="2" rx="5" ry="4"/><path fill="rgba(0, 0, 0, 0)" stroke="#1c1612" stroke-width="2" d="M88 72c4 6 13 6 17 0v10c-5 4-13 4-18 0Z"/><ellipse cx="95" cy="44" fill="rgba(0, 0, 0, 0)" stroke="#1c1612" stroke-width="2" rx="17.5" ry="19"/><path fill="#1c1612" stroke="#1c1612" stroke-width="2" d="M78 36c5-11 23-16 35-2-10-2-23 0-35 2"/><path fill="rgba(0, 0, 0, 0)" stroke="#1c1612" stroke-width="2" d="M85 45c3-3 6-3 9 0m5 0c3-3 6-3 9 0"/><path fill="rgba(0, 0, 0, 0)" stroke="#1c1612" stroke-width="2" d="M86 56c6 8 16 8 23 0"/><circle cx="82" cy="52" r="2" fill="#e87a7a" stroke="rgba(0, 0, 0, 0)" stroke-width="2" opacity=".3"/><circle cx="110" cy="52" r="2" fill="#e87a7a" stroke="rgba(0, 0, 0, 0)" stroke-width="2" opacity=".3"/></g></svg>