<svg xmlns="http://www.w3.org/2000/svg" viewBox="0 0 190 220"><g fill="rgba(0, 0, 0, 0)" fill-rule="nonzero" stroke="#1c1612" stroke-dashoffset="0" stroke-linecap="round" stroke-linejoin="round" stroke-miterlimit="4" stroke-width="2" clip-rule="nonzero" dominant-baseline="auto" font-family="'Kalam', cursive" font-size="medium" font-weight="300" text-anchor="start"><circle cx="126" cy="18" r="12"/><path d="M120 18c4-7 10-5 12 0m-11 13h11m-9 5h7"/></g><path fill="rgba(0, 0, 0, 0)" fill-rule="nonzero" stroke="#1c1612" stroke-dashoffset="0" stroke-linecap="round" stroke-linejoin="round" stroke-miterlimit="4" stroke-width="3.2" d="M83 145c-4 19-5 36-8 51" clip-rule="nonzero" dominant-baseline="auto" font-family="'Kalam', cursive" font-size="medium" font-weight="300" text-anchor="start"/><path fill="rgba(0, 0, 0, 0)" fill-rule="nonzero" stroke="#1c1612" stroke-dashoffset="0" stroke-linecap="round" stroke-linejoin="round" stroke-miterlimit="4" stroke-width="3.2" d="M108 145c8 18 13 36 16 51" clip-rule="nonzero" dominant-baseline="auto" font-family="'Kalam', cursive" font-size="medium" font-weight="300" text-anchor="start"/><ellipse cx="73" cy="199" fill="rgba(0, 0, 0, 0)" fill-rule="nonzero" stroke="#1c1612" stroke-dashoffset="0" stroke-linecap="round" stroke-linejoin="round" stroke-miterlimit="4" stroke-width="2" clip-rule="nonzero" dominant-baseline="auto" font-family="'Kalam', cursive" font-size="medium" font-weight="300" rx="11" ry="4" text-anchor="start"/><ellipse cx="126" cy="199" fill="rgba(0, 0, 0, 0)" fill-rule="nonzero" stroke="#1c1612" stroke-dashoffset="0" stroke-linecap="round" stroke-linejoin="round" stroke-miterlimit="4" stroke-width="2" clip-rule="nonzero" dominant-baseline="auto" font-family="'Kalam', cursive" font-size="medium" font-weight="300" rx="11" ry="4" text-anchor="start"/><path fill="rgba(255, 253, 246, 0.8)" fill-rule="nonzero" stroke="#1c1612" stroke-dashoffset="0" stroke-linecap="round" stroke-linejoin="round" stroke-miterlimit="4" stroke-width="2.2" d="M72.293 78.334c12.32-4.15 39.254-2.267 49.739 5.483 2.525 21.228-.286 47.095-6.39 62.707-15.382 4.939-34.266 2.616-47.813-4.346-2.526-21.228-.852-45.17 4.464-63.844" clip-rule="nonzero" dominant-baseline="auto" font-family="'Kalam', cursive" font-size="medium" font-weight="300" text-anchor="start"/><path fill="rgba(0, 0, 0, 0)" fill-rule="nonzero" stroke="#1c1612" stroke-dashoffset="0" stroke-linecap="round" stroke-linejoin="round" stroke-miterlimit="4" stroke-width="3.2" d="M73 87C55 76 49 58 53 43c2-6 6-9 10-12" clip-rule="nonzero" dominant-baseline="auto" font-family="'Kalam', cursive" font-size="medium" font-weight="300" text-anchor="start"/><path fill="rgba(0, 0, 0, 0)" fill-rule="nonzero" stroke="#1c1612" stroke-dashoffset="0" stroke-linecap="round" stroke-linejoin="round" stroke-miterlimit="4" stroke-width="2" d="m61 31 3-10" clip-rule="nonzero" dominant-baseline="auto" font-family="'Kalam', cursive" font-size="medium" font-weight="300" text-anchor="start"/><path fill="rgba(0, 0, 0, 0)" fill-rule="nonzero" stroke="#1c1612" stroke-dashoffset="0" stroke-linecap="round" stroke-linejoin="round" stroke-miterlimit="4" stroke-width="3.2" d="M117 88c13 11 16 28 10 42" clip-rule="nonzero" dominant-baseline="auto" font-family="'Kalam', cursive" font-size="medium" font-weight="300" text-anchor="start"/><path fill="rgba(245, 216, 74, 0.26)" fill-rule="nonzero" stroke="#1c1612" stroke-dashoffset="0" stroke-linecap="round" stroke-linejoin="round" stroke-miterlimit="4" stroke-width="2" d="M121 120c13-3 25 0 30 6-1 13-4 24-9 30-14 2-24-2-29-8 0-12 3-22 8-28" clip-rule="nonzero" dominant-baseline="auto" font-family="'Kalam', cursive" font-size="medium" font-weight="300" text-anchor="start"/><path fill="rgba(0, 0, 0, 0)" fill-rule="nonzero" stroke="#1c1612" stroke-dashoffset="0" stroke-linecap="round" stroke-linejoin="round" stroke-miterlimit="4" stroke-width="2" d="m123 131 21 1m-22 7 21 2m-22 6 16 2" clip-rule="nonzero" dominant-baseline="auto" font-family="'Kalam', cursive" font-size="medium" font-weight="300" text-anchor="start"/><path fill="rgba(0, 0, 0, 0)" fill-rule="nonzero" stroke="#1c1612" stroke-dashoffset="0" stroke-linecap="round" stroke-linejoin="round" stroke-miterlimit="4" stroke-width="2" d="M88 72c4 6 13 6 17 0v10c-5 4-13 4-18 0Z" clip-rule="nonzero" dominant-baseline="auto" font-family="'Kalam', cursive" font-size="medium" font-weight="300" text-anchor="start"/><ellipse cx="95" cy="44" fill="rgba(0, 0, 0, 0)" fill-rule="nonzero" stroke="#1c1612" stroke-dashoffset="0" stroke-linecap="round" stroke-linejoin="round" stroke-miterlimit="4" stroke-width="2" clip-rule="nonzero" dominant-baseline="auto" font-family="'Kalam', cursive" font-size="medium" font-weight="300" rx="17.5" ry="19" text-anchor="start"/><path fill="#1c1612" fill-rule="nonzero" stroke="#1c1612" stroke-dashoffset="0" stroke-linecap="round" stroke-linejoin="round" stroke-miterlimit="4" stroke-width="2" d="m78 38 8-14 5 10 8-11 4 12 10-6-3 18c-10-9-19-12-32-9" clip-rule="nonzero" dominant-baseline="auto" font-family="'Kalam', cursive" font-size="medium" font-weight="300" text-anchor="start"/><circle cx="89" cy="45" r="2.8" fill="#1c1612" fill-rule="nonzero" stroke="#1c1612" stroke-dashoffset="0" stroke-linecap="round" stroke-linejoin="round" stroke-miterlimit="4" stroke-width="2" clip-rule="nonzero" dominant-baseline="auto" font-family="'Kalam', cursive" font-size="medium" font-weight="300" text-anchor="start"/><circle cx="102" cy="45" r="2.8" fill="#1c1612" fill-rule="nonzero" stroke="#1c1612" stroke-dashoffset="0" stroke-linecap="round" stroke-linejoin="round" stroke-miterlimit="4" stroke-width="2" clip-rule="nonzero" dominant-baseline="auto" font-family="'Kalam', cursive" font-size="medium" font-weight="300" text-anchor="start"/><path fill="rgba(0, 0, 0, 0)" fill-rule="nonzero" stroke="#1c1612" stroke-dashoffset="0" stroke-linecap="round" stroke-linejoin="round" stroke-miterlimit="4" stroke-width="2" d="M88 56c5 3 11 3 16-1" clip-rule="nonzero" dominant-baseline="auto" font-family="'Kalam', cursive" font-size="medium" font-weight="300" text-anchor="start"/></svg>