<svg xmlns="http://www.w3.org/2000/svg" viewBox="0 0 820 500"><g fill-rule="nonzero" stroke="#1c1612" stroke-dashoffset="0" stroke-linecap="round" stroke-linejoin="round" stroke-miterlimit="4" stroke-width="1.55" clip-rule="nonzero" dominant-baseline="auto" font-family="'Kalam', cursive" font-size="medium" font-weight="300" text-anchor="start"><path fill="rgba(255, 253, 246, 0.62)" d="M28 36c147-11 629-9 761 3 11 106 6 351-5 425-190 16-582 13-755-1-12-123-12-303-1-427"/><path fill="rgba(0, 0, 0, 0)" d="M35 76c156-7 607-6 748 2"/><circle cx="58" cy="56" r="7" fill="rgba(0, 0, 0, 0)"/><circle cx="80" cy="55" r="7" fill="rgba(0, 0, 0, 0)"/><circle cx="103" cy="55" r="7" fill="rgba(0, 0, 0, 0)"/><path fill="rgba(0, 0, 0, 0)" d="M138 49c111-6 283-6 382 1 3 7 2 14-2 18-124 3-274 2-379-1-4-6-4-13-1-18"/><path fill="rgba(122, 179, 232, 0.1)" d="M48 94c28-4 52-2 67 4 4 113 1 239-5 346-26 5-46 3-62-2-4-112-4-243 0-348"/><path fill="rgba(255, 253, 246, 0.62)" d="M139 98c141-10 377-7 478 2 8 114 5 236-5 340-158 10-336 7-473-3-9-115-9-229 0-339"/><path fill="rgba(245, 216, 74, 0.12)" d="M638 101c52-7 111-5 132 2 6 103 4 241-2 334-48 8-96 6-130-2-6-116-5-228 0-334"/><path fill="rgba(0, 0, 0, 0)" d="M162 126h207m-207 20h160m-160 20h225m-225 20h140"/><path fill="rgba(0, 0, 0, 0)" d="M162 218c63-10 129-7 174 4 4 47 2 93-4 125-54 9-120 7-170-2-6-47-5-97 0-127"/><path fill="rgba(0, 0, 0, 0)" stroke-dasharray="5 4" d="M181 318c34-48 77-10 125-74m-125 48h128m-104-46v81m49-88v89"/><path fill="rgba(0, 0, 0, 0)" d="M368 218c70-7 155-5 222 3 5 38 3 100-4 126-81 9-146 6-218-1-5-42-5-93 0-128"/><path fill="rgba(0, 0, 0, 0)" d="M383 240h189m-189 23h189m-189 23h189m-189 23h189m-137-81v103m64-102v102"/><path fill="rgba(0, 0, 0, 0)" d="M165 370h120v51H165Zm142 0h120v51H307Zm142 0h140v51H449Z"/><path fill="rgba(0, 0, 0, 0)" d="M181 404c15-19 34 3 52-23m91 11h81m-81 14h54m90 2h102m-102-19h102"/><path fill="rgba(0, 0, 0, 0)" d="M665 135h79m-79 25h62m-62 44h82m-82 25h48m-48 45h82m-82 25h67"/></g><g fill-rule="nonzero" stroke-dashoffset="0" stroke-miterlimit="4" clip-rule="nonzero" dominant-baseline="auto" font-weight="300" text-anchor="start"><path fill="rgba(0, 0, 0, 0)" stroke="#1c1612" stroke-linecap="round" stroke-linejoin="round" stroke-width="1.55" d="M570 179c51-21 77-31 108-46" font-family="'Kalam', cursive" font-size="medium"/><text x="510" y="174" fill="#1c1612" stroke-linecap="butt" stroke-linejoin="miter" stroke-width="1" font-family="'Architects Daughter', cursive" font-size="18">connected to your DB</text><path fill="rgba(0, 0, 0, 0)" stroke="#1c1612" stroke-linecap="round" stroke-linejoin="round" stroke-width="1.55" d="M324 361c14-24 32-35 56-48" font-family="'Kalam', cursive" font-size="medium"/><text x="257" y="360" fill="#1c1612" stroke-linecap="butt" stroke-linejoin="miter" stroke-width="1" font-family="'Architects Daughter', cursive" font-size="18">drag to resize →</text><path fill="rgba(0, 0, 0, 0)" stroke="#1c1612" stroke-linecap="round" stroke-linejoin="round" stroke-width="1.55" d="M184 437c29 12 73 10 126-11" font-family="'Kalam', cursive" font-size="medium"/><text x="112" y="465" fill="#1c1612" stroke-linecap="butt" stroke-linejoin="miter" stroke-width="1" font-family="'Architects Daughter', cursive" font-size="18">any block, anywhere</text><path fill="rgba(0, 0, 0, 0)" stroke="#1c1612" stroke-linecap="round" stroke-linejoin="round" stroke-width="1.55" d="M536 352c29 15 55 32 72 55" font-family="'Kalam', cursive" font-size="medium"/><text x="590" y="385" fill="#1c1612" stroke-linecap="butt" stroke-linejoin="miter" stroke-width="1" font-family="'Architects Daughter', cursive" font-size="18">your own app here</text><path fill="rgba(0, 0, 0, 0)" stroke="#1c1612" stroke-linecap="round" stroke-linejoin="round" stroke-width="1.55" d="M225 210c-35-3-64-8-90-20" font-family="'Kalam', cursive" font-size="medium"/><text x="78" y="190" fill="#1c1612" stroke-linecap="butt" stroke-linejoin="miter" stroke-width="1" font-family="'Architects Daughter', cursive" font-size="18">live data</text></g></svg>