<svg xmlns="http://www.w3.org/2000/svg" viewBox="0 0 180 140"><g fill-rule="nonzero" stroke-dashoffset="0" stroke-miterlimit="4" clip-rule="nonzero" dominant-baseline="auto" font-weight="300" text-anchor="start"><path fill="rgba(255, 253, 246, 0.72)" stroke="#1c1612" stroke-linecap="round" stroke-linejoin="round" stroke-width="1.5" d="M16 24c28-5 56-3 75 1 3 32 1 68-2 90-27 6-53 5-74 0-4-31-3-65 1-91" font-family="'Kalam', cursive" font-size="medium"/><path fill="rgba(255, 253, 246, 0.72)" stroke="#1c1612" stroke-linecap="round" stroke-linejoin="round" stroke-width="1.5" d="M100 20c26-4 53-2 66 4 4 32 3 69-2 94-25 6-48 3-66-2-4-33-3-68 2-96" font-family="'Kalam', cursive" font-size="medium"/><path fill="rgba(0, 0, 0, 0)" stroke="#1c1612" stroke-linecap="round" stroke-linejoin="round" stroke-width="1.5" d="M25 40h53M25 58h53M25 76h53M25 94h53M36 30v78" font-family="'Kalam', cursive" font-size="medium"/><path fill="rgba(0, 0, 0, 0)" stroke="#1c1612" stroke-linecap="round" stroke-linejoin="round" stroke-width="1.5" d="M109 38h45m-45 18h45m-45 18h45m-45 18h45m-34-63v79" font-family="'Kalam', cursive" font-size="medium"/><circle cx="30" cy="58" r="3" fill="rgba(0, 0, 0, 0)" stroke="#1c1612" stroke-linecap="round" stroke-linejoin="round" stroke-width="1.5" font-family="'Kalam', cursive" font-size="medium"/><circle cx="30" cy="76" r="3" fill="rgba(0, 0, 0, 0)" stroke="#1c1612" stroke-linecap="round" stroke-linejoin="round" stroke-width="1.5" font-family="'Kalam', cursive" font-size="medium"/><circle cx="30" cy="94" r="3" fill="rgba(0, 0, 0, 0)" stroke="#1c1612" stroke-linecap="round" stroke-linejoin="round" stroke-width="1.5" font-family="'Kalam', cursive" font-size="medium"/><circle cx="114" cy="56" r="3" fill="rgba(0, 0, 0, 0)" stroke="#1c1612" stroke-linecap="round" stroke-linejoin="round" stroke-width="1.5" font-family="'Kalam', cursive" font-size="medium"/><circle cx="114" cy="74" r="3" fill="rgba(0, 0, 0, 0)" stroke="#1c1612" stroke-linecap="round" stroke-linejoin="round" stroke-width="1.5" font-family="'Kalam', cursive" font-size="medium"/><circle cx="114" cy="92" r="3" fill="rgba(0, 0, 0, 0)" stroke="#1c1612" stroke-linecap="round" stroke-linejoin="round" stroke-width="1.5" font-family="'Kalam', cursive" font-size="medium"/><path fill="rgba(0, 0, 0, 0)" stroke="#1c1612" stroke-linecap="round" stroke-linejoin="round" stroke-width="1.5" d="M91 66c10-11 1 22 10 12" font-family="'Kalam', cursive" font-size="medium"/><text x="75" y="52" fill="#1c1612" stroke-linecap="butt" stroke-linejoin="miter" stroke-width="1" font-family="'Special Elite', monospace" font-size="10">1→∞</text></g></svg>